<?xml version="1.0" encoding="utf-8"?>
<!DOCTYPE svg PUBLIC "-//W3C//DTD SVG 1.0//EN" "http://www.w3.org/TR/2001/REC-SVG-20010904/DTD/svg10.dtd">
<svg version="1.0" xmlns="http://www.w3.org/2000/svg" width="500px" height="500px" viewBox="0 0 500 500" preserveAspectRatio="xMidYMid meet">
 <g fill="#212730">
  <path d="M337.50 372.77 c-1.50 -0.32 -2.72 -0.98 -3.53 -1.83 -0.98 -1.02 -2.08 -3.33 -2.60 -5.35 -0.80 -3.15 -0.93 -11.90 -0.25 -18.10 0.45 -4.18 1.92 -13.88 2.90 -19.25 0.43 -2.28 0.85 -4.68 0.98 -5.38 0.10 -0.68 0.60 -3.25 1.10 -5.70 0.50 -2.45 0.90 -4.68 0.90 -4.93 0 -0.47 1.08 -1.40 2.25 -1.92 0.35 -0.17 1.02 -0.47 1.50 -0.68 2.63 -1.17 7.32 -1.85 9.85 -1.38 4.40 0.80 6.57 3.08 7.93 8.35 0.52 2.05 0.57 2.80 0.57 8.13 0 3.38 -0.13 6.68 -0.30 7.75 -0.15 1.02 -0.47 3.05 -0.68 4.45 -1.08 7.50 -3.20 16.27 -5.30 21.80 -1.25 3.30 -3.35 7.40 -4.95 9.55 -2.33 3.20 -4.30 4.40 -7.55 4.57 -1.08 0.05 -2.35 0 -2.83 -0.10z"/>
  <path d="M415.25 337.10 c0 -0.55 0.40 -1.63 1.10 -2.92 0.60 -1.13 1.83 -3.45 2.70 -5.18 0.90 -1.73 2.35 -4.47 3.20 -6.13 0.88 -1.65 2.15 -4.13 2.88 -5.50 0.73 -1.38 4.65 -8.90 8.75 -16.75 4.07 -7.82 7.95 -15.25 8.63 -16.50 0.65 -1.23 2.28 -4.38 3.63 -7 3.22 -6.25 3.15 -6.13 4.53 -6.13 1.02 0 1.10 0.05 1.10 0.70 0 0.38 -0.40 2.65 -0.88 5.05 -0.47 2.40 -2.45 12.30 -4.38 22 -1.92 9.70 -3.65 18.48 -3.88 19.50 -0.68 3.28 -2.13 10.55 -2.50 12.50 -0.63 3.45 -1.33 6.72 -1.50 6.97 -0.10 0.20 -3.92 0.28 -11.77 0.28 l-11.60 0 0 -0.90z"/>
  <path d="M252.50 188.70 c0 -0.88 -0.17 -3.88 -0.38 -6.70 -0.50 -7.13 -0.50 -8 0.10 -8 0.28 0 1.67 -0.28 3.13 -0.63 1.45 -0.35 3.33 -0.63 4.18 -0.63 l1.52 0 -0.13 0.95 c-0.05 0.50 -0.90 2.72 -1.88 4.93 -0.98 2.20 -2.42 5.70 -3.22 7.75 l-1.45 3.75 -0.95 0.08 -0.93 0.08 0 -1.58z"/>
  <path d="M208.75 176.60 c-4.13 -0.13 -14.88 -0.82 -16.50 -1.10 -0.75 -0.13 -2.55 -0.35 -4 -0.50 -1.45 -0.15 -4.20 -0.57 -6.13 -0.90 -1.92 -0.35 -4.05 -0.75 -4.75 -0.85 -2.45 -0.45 -2.40 -0.43 -2.33 -1.45 0.08 -0.85 0.30 -1.10 3.33 -3.50 7.63 -6.07 15.38 -12.48 26.90 -22.23 1.98 -1.67 5.85 -4.90 8.60 -7.18 2.75 -2.25 5.95 -4.93 7.13 -5.90 1.17 -0.98 2.83 -2.33 3.65 -2.95 3.40 -2.60 10.30 -8.05 11.60 -9.15 1.20 -1.02 1.50 -1.17 2.35 -1.10 l0.95 0.08 0.73 2.13 c3.80 11.13 6.88 24.42 8.73 37.75 0.25 1.85 0.57 4.10 0.73 5 0.43 2.72 0.88 8.13 0.73 8.55 -0.10 0.25 -0.65 0.43 -1.75 0.55 -0.85 0.10 -2.80 0.38 -4.32 0.65 -1.50 0.25 -4.05 0.60 -5.63 0.75 -1.58 0.17 -2.97 0.35 -3.08 0.43 -0.63 0.38 -21.20 1.08 -26.92 0.93z"/>
  <path d="M251.40 172.70 c-0.08 -0.32 -0.25 -1.75 -0.40 -3.20 -1.50 -15 -4.90 -31.63 -9.02 -44.08 -1.10 -3.30 -1.98 -6.40 -1.98 -6.93 0 -0.85 0.13 -1.05 1.20 -1.83 0.65 -0.47 1.85 -1.45 2.67 -2.15 6.15 -5.20 33.15 -25.88 43 -32.90 5.43 -3.88 15.77 -10.88 16.10 -10.88 0.13 0 0.38 -0.17 0.55 -0.40 0.52 -0.65 10.88 -7.35 11.32 -7.35 0.08 0 0.65 -0.35 1.27 -0.77 2.20 -1.48 12.85 -7.45 17 -9.52 0.55 -0.28 1.17 -0.60 1.38 -0.73 0.20 -0.10 1 -0.55 1.75 -0.98 0.75 -0.43 2.17 -1.13 3.13 -1.52 1.65 -0.73 4.03 -1.83 6.63 -3.13 0.63 -0.30 3.33 -1.48 6 -2.60 2.67 -1.13 5.32 -2.25 5.88 -2.50 0.55 -0.22 2.13 -0.85 3.50 -1.38 1.38 -0.52 2.97 -1.15 3.58 -1.42 1.50 -0.65 10.82 -3.78 14.43 -4.82 1.65 -0.50 3.55 -1.05 4.22 -1.25 0.65 -0.20 1.88 -0.38 2.67 -0.38 l1.48 0 0 0.82 c0 0.60 -0.17 0.90 -0.70 1.23 -11.85 7.15 -29.30 19.88 -39.85 29 -4.47 3.88 -8.50 7.45 -9.95 8.82 -0.90 0.85 -3.65 3.47 -6.13 5.82 -5.25 4.95 -9.82 9.60 -13.18 13.30 -1.30 1.45 -2.83 3.13 -3.42 3.75 -2.72 2.92 -10.88 12.32 -14.02 16.25 -10.32 12.80 -21.88 29.40 -28 40.25 -0.73 1.30 -2.05 3.65 -2.95 5.22 -0.90 1.58 -2.90 5.53 -4.45 8.75 l-2.83 5.90 -1.83 0.43 c-4.43 1.02 -7.72 1.70 -8.30 1.70 -0.45 0 -0.68 -0.15 -0.75 -0.55z"/>
  <path d="M163.75 170.02 c-0.90 -0.22 -2.92 -0.95 -4.50 -1.58 -1.58 -0.63 -3.65 -1.45 -4.63 -1.83 -3.65 -1.45 -8.02 -3.88 -13.18 -7.35 -7.70 -5.18 -14.15 -12.52 -18.50 -21.02 -4.55 -8.90 -6.45 -17.45 -6.45 -28.90 0 -6.55 0.77 -11.30 2.78 -16.98 1.33 -3.80 2.33 -5.80 4.63 -9.25 2.90 -4.35 5.15 -6.78 9.73 -10.38 2.22 -1.75 2.53 -1.95 3.75 -2.60 0.65 -0.35 1.33 -0.75 1.48 -0.88 0.60 -0.50 6.68 -3.53 7.07 -3.53 0.22 0 0.60 -0.15 0.80 -0.32 0.50 -0.43 2.42 -1.10 4.38 -1.55 0.80 -0.20 1.58 -0.45 1.73 -0.60 0.15 -0.15 0.63 -0.28 1.08 -0.28 0.43 0 1.17 -0.15 1.63 -0.35 0.47 -0.17 1.65 -0.47 2.60 -0.63 0.98 -0.17 2.42 -0.47 3.25 -0.65 2.90 -0.68 7.70 -0.93 12.75 -0.63 6.20 0.32 9.15 0.75 13.88 2.03 5.57 1.48 13.27 4.95 17.48 7.85 4.50 3.13 9.43 7.55 13.38 11.98 1.80 2.03 6.28 7.95 7.95 10.52 3.92 6.05 9.95 18.23 9.95 20.10 0 0.68 -0.43 1.10 -4.43 4.32 -2.42 1.98 -4.75 3.85 -5.18 4.18 -2.50 1.98 -7.18 5.72 -9.65 7.75 -4.88 4.03 -21.65 18.05 -25.88 21.65 -4.03 3.42 -12.60 10.50 -16.63 13.75 -1.20 0.98 -3.28 2.63 -4.57 3.70 -2.35 1.88 -2.45 1.92 -3.72 1.90 -0.73 0 -2.05 -0.20 -2.95 -0.45z"/>
 </g>
 <g fill="#eeeeee">
  <path d="M333.38 399.85 c-2.60 -0.40 -7.18 -1.50 -8.57 -2.08 -5.15 -2.13 -11.02 -7.10 -14.15 -11.98 -3.50 -5.50 -5.20 -10.73 -6.57 -20.42 -0.63 -4.50 -0.68 -5.28 -0.68 -14.63 -0.03 -6.60 0.08 -10.57 0.30 -12 0.15 -1.17 0.47 -3.75 0.65 -5.75 2.03 -20.23 7.80 -45.92 14.40 -64 0.57 -1.58 1.13 -3.15 1.23 -3.50 0.13 -0.35 0.90 -2.35 1.75 -4.47 8.15 -20.27 18.77 -34.20 30.27 -39.70 5.82 -2.78 10.98 -4 17.75 -4.25 6.93 -0.22 9.95 0.20 17.05 2.47 4.40 1.40 10.60 4.32 10.52 4.95 -0.03 0.20 -0.28 1.63 -0.55 3.13 -0.52 2.92 -0.88 4.78 -3.15 17.50 -0.80 4.40 -1.52 8.10 -1.63 8.20 -0.10 0.13 -0.40 0 -0.65 -0.28 -1.50 -1.52 -8.10 -5.30 -11.65 -6.65 -2.05 -0.75 -7.32 -1.50 -9.30 -1.33 -3.22 0.32 -6.22 1.40 -8.40 3 -5.28 3.90 -8.85 9.32 -13.02 19.67 -2.28 5.65 -6.45 19.17 -6.18 20 0.05 0.15 0.77 -0.17 1.70 -0.75 4.50 -2.83 10.23 -4.50 15.38 -4.50 4.43 0 8.23 0.85 12.02 2.72 2.75 1.35 3.30 1.75 5.43 3.83 5.82 5.72 8.63 12.82 9.82 24.83 1.27 12.90 -1.52 31.77 -6.97 47.13 -4.18 11.70 -9.48 20.73 -16.02 27.27 -2.47 2.47 -7.60 6.38 -10.18 7.72 -2.25 1.17 -5.53 2.25 -9.43 3.13 -2.17 0.50 -3.75 0.68 -6.65 0.75 -2.08 0.05 -4.10 0.03 -4.53 -0.03z m9.30 -28.35 c2.50 -1.10 4.80 -3.80 7.15 -8.45 3.25 -6.43 6.03 -16.25 7.55 -26.85 0.20 -1.40 0.50 -3.42 0.68 -4.45 0.17 -1.02 0.30 -4.18 0.30 -7 0 -4.53 -0.08 -5.38 -0.57 -7.38 -0.85 -3.33 -2.03 -5.43 -3.75 -6.65 -0.75 -0.55 -2 -1.17 -2.78 -1.40 -1.70 -0.50 -5.03 -0.47 -6.50 0.05 -0.57 0.20 -1.23 0.38 -1.42 0.38 -0.30 0 -1.35 0.40 -3.33 1.33 -1.17 0.52 -2.25 1.45 -2.25 1.92 0 0.25 -0.40 2.47 -0.90 4.93 -0.50 2.45 -1 5.03 -1.10 5.70 -0.13 0.70 -0.55 3.10 -0.98 5.38 -1.20 6.60 -2.60 16.02 -3.03 20.75 -0.35 3.60 -0.35 10.07 0 12.85 0.40 3.25 1.48 5.97 2.97 7.60 1.77 1.92 5.22 2.47 7.95 1.30z"/>
  <path d="M10 396.60 c0 -0.22 0.28 -1.77 0.60 -3.45 0.35 -1.65 1.13 -5.72 1.77 -9.02 0.63 -3.30 1.30 -6.78 1.50 -7.75 0.45 -2.20 3.03 -15.52 4.38 -22.63 0.55 -2.95 1.25 -6.45 1.50 -7.75 0.57 -2.83 2.08 -10.55 3.50 -18 0.55 -2.95 1.23 -6.45 1.50 -7.75 0.25 -1.30 0.93 -4.80 1.50 -7.75 0.57 -2.95 1.50 -7.68 2.03 -10.50 1.83 -9.40 2.92 -15.07 3.97 -20.50 0.57 -2.95 1.50 -7.68 2.03 -10.50 1.83 -9.40 2.92 -15.07 3.97 -20.50 0.57 -2.95 1.48 -7.63 2 -10.38 2.10 -10.80 4.03 -20.50 4.10 -20.58 0.05 -0.03 6.82 -0.08 15.05 -0.05 l14.98 0 0.15 0.55 c0.10 0.32 0.30 1.65 0.45 2.95 0.15 1.30 0.50 4.07 0.77 6.13 0.28 2.08 0.73 5.45 1 7.50 0.28 2.08 0.73 5.45 1 7.50 0.28 2.08 0.68 5 0.88 6.50 0.20 1.52 0.65 4.95 1 7.63 0.38 2.67 0.88 6.50 1.13 8.50 0.28 2 0.73 5.38 1 7.50 0.30 2.13 0.73 5.47 1 7.45 0.25 1.98 0.50 3.65 0.57 3.70 0.05 0.08 0.70 -1.05 1.42 -2.45 0.73 -1.42 2.55 -4.93 4.05 -7.82 1.52 -2.88 3.55 -6.78 4.53 -8.63 0.95 -1.85 3 -5.80 4.55 -8.75 1.55 -2.95 3.63 -6.95 4.63 -8.88 1 -1.92 2.40 -4.63 3.13 -6 0.73 -1.38 2.17 -4.18 3.25 -6.25 1.08 -2.05 2.65 -5.10 3.53 -6.75 0.85 -1.65 2.40 -4.63 3.45 -6.63 l1.88 -3.63 15.45 -0.13 c8.50 -0.08 15.55 -0.05 15.65 0.03 0.10 0.08 -0.15 1.92 -0.57 4.13 -0.43 2.17 -1.40 7.18 -2.15 11.10 -0.75 3.92 -1.58 8.20 -1.85 9.50 -0.25 1.30 -0.70 3.55 -0.98 5 -0.28 1.45 -0.90 4.65 -1.38 7.13 -0.47 2.47 -1.45 7.47 -2.15 11.13 -0.70 3.65 -1.42 7.43 -1.63 8.38 -0.43 2.15 -1.73 8.80 -3.25 16.75 -0.63 3.30 -1.35 7.07 -1.63 8.38 -0.28 1.30 -0.93 4.80 -1.50 7.75 -0.55 2.95 -1.17 6.18 -1.38 7.13 -0.20 0.98 -0.88 4.45 -1.50 7.75 -0.63 3.30 -1.35 7.07 -1.63 8.38 -0.25 1.30 -0.70 3.55 -0.98 5 -0.28 1.45 -0.95 4.93 -1.50 7.75 -0.55 2.83 -1.45 7.55 -2.03 10.50 -0.55 2.95 -1.23 6.45 -1.50 7.75 -0.25 1.30 -0.70 3.55 -0.98 5 -3.97 20.67 -5.53 28.55 -5.68 28.80 -0.17 0.28 -29.60 0.25 -29.60 -0.03 0 -0.13 0.50 -2.72 1.10 -5.80 0.60 -3.08 1.40 -7.18 1.77 -9.10 0.35 -1.92 0.80 -4.28 1 -5.25 0.20 -0.95 0.57 -2.92 0.85 -4.38 1.75 -9.23 2.85 -14.85 3.15 -16.38 0.20 -0.95 0.82 -4.18 1.38 -7.13 0.57 -2.95 1.25 -6.45 1.50 -7.75 0.28 -1.30 0.95 -4.80 1.50 -7.75 0.55 -2.95 1.48 -7.68 2 -10.50 0.55 -2.83 1.23 -6.25 1.50 -7.63 0.25 -1.38 0.93 -4.93 1.50 -7.88 1.45 -7.57 2.70 -13.93 3.03 -15.32 0.15 -0.68 0.22 -1.25 0.17 -1.33 -0.13 -0.10 -3.30 5.90 -17.83 33.65 -1.63 3.10 -3.92 7.47 -5.13 9.75 -2.50 4.75 -4.88 9.27 -9.02 17.25 -1.63 3.10 -3.10 5.65 -3.30 5.70 -0.43 0.08 -0.57 -0.43 -0.80 -2.83 -0.10 -0.82 -0.28 -2.13 -0.40 -2.88 -0.13 -0.75 -0.38 -2.55 -0.57 -4 -0.20 -1.45 -0.88 -6.22 -1.52 -10.63 -0.63 -4.40 -1.38 -9.63 -1.65 -11.63 -0.50 -3.60 -1.05 -7.47 -1.98 -14 -0.28 -1.85 -0.68 -4.60 -0.88 -6.13 -0.20 -1.50 -0.70 -5 -1.13 -7.72 -0.40 -2.75 -0.75 -5.50 -0.75 -6.13 0 -0.60 -0.05 -1.05 -0.10 -1 -0.13 0.13 -2.10 9.88 -3.65 17.98 -0.55 2.95 -1.45 7.63 -2 10.38 -0.52 2.75 -1.25 6.57 -1.63 8.50 -0.35 1.92 -0.82 4.30 -1 5.25 -0.20 0.98 -0.88 4.45 -1.50 7.75 -0.63 3.30 -1.30 6.80 -1.50 7.75 -0.20 0.98 -0.57 2.92 -0.85 4.38 -0.28 1.45 -0.95 4.93 -1.50 7.75 -0.55 2.83 -1.27 6.70 -1.65 8.63 -0.35 1.92 -0.82 4.30 -1 5.25 -0.20 0.98 -0.88 4.40 -1.48 7.63 -0.63 3.22 -1.58 8.07 -2.10 10.75 l-0.95 4.88 -14.80 0.08 c-13.60 0.05 -14.80 0.03 -14.80 -0.35z"/>
  <path d="M122 396.73 c0 -0.15 0.50 -1.20 1.10 -2.30 0.60 -1.13 2.92 -5.65 5.15 -10.05 2.25 -4.40 4.88 -9.57 5.88 -11.50 1 -1.92 3.58 -6.97 5.75 -11.25 2.17 -4.25 4.93 -9.65 6.13 -12 1.20 -2.33 3.63 -7.05 5.38 -10.50 1.75 -3.42 4.18 -8.15 5.38 -10.50 1.20 -2.33 4.13 -8.07 6.50 -12.75 2.38 -4.68 4.47 -8.73 4.68 -9 0.43 -0.63 0.43 -1.67 -0.05 -4.63 -0.43 -2.63 -0.95 -6.75 -1.50 -11.38 -0.17 -1.65 -0.50 -4.22 -0.70 -5.75 -0.22 -1.50 -0.57 -4.15 -0.80 -5.88 -0.22 -1.73 -0.57 -4.43 -0.77 -6 -0.98 -7.50 -1.40 -10.88 -1.73 -13.75 -0.22 -1.73 -0.47 -3.75 -0.60 -4.50 -0.13 -0.75 -0.30 -2.05 -0.40 -2.88 -0.08 -0.82 -0.30 -2.67 -0.50 -4.13 -0.40 -2.75 -0.90 -6.65 -1.50 -11.50 -0.50 -4 -1.58 -12.30 -1.88 -14.25 -0.13 -0.90 -0.25 -1.90 -0.25 -2.25 l0 -0.63 15.93 0.05 c8.75 0.05 15.93 0.10 15.98 0.13 0.03 0.05 0.25 2.50 0.45 5.45 0.38 5.07 0.82 10.77 1.40 17.63 0.15 1.65 0.38 4.70 0.52 6.75 0.13 2.08 0.40 5.45 0.60 7.50 0.20 2.08 0.47 5.60 0.63 7.88 0.17 2.28 0.38 4.40 0.50 4.75 0.17 0.57 0.20 0.60 0.38 0.13 0.32 -0.88 2.03 -4.65 3.45 -7.63 0.75 -1.58 2.15 -4.55 3.13 -6.63 0.95 -2.05 2.45 -5.20 3.30 -7 0.85 -1.77 1.80 -3.80 2.13 -4.50 2.55 -5.45 4.55 -9.73 5.82 -12.38 0.80 -1.73 1.85 -3.90 2.30 -4.88 0.45 -0.95 1.35 -2.88 2 -4.28 0.65 -1.40 1.30 -2.60 1.45 -2.70 0.40 -0.25 33.05 -0.30 33.05 -0.05 0 0.10 -0.73 1.58 -1.60 3.25 -1.67 3.20 -3.15 6.05 -9.52 18.40 -2.15 4.20 -4.63 8.98 -5.50 10.63 -2.30 4.43 -4.80 9.27 -9.50 18.38 -2.30 4.47 -4.97 9.65 -5.95 11.50 -2.90 5.63 -5 9.68 -7.22 14 -1.17 2.28 -3 5.80 -4.05 7.82 -1.05 2.03 -1.85 3.80 -1.77 3.90 0.08 0.13 0.30 1.63 0.50 3.33 0.20 1.67 1.10 8.75 2 15.70 0.90 6.95 1.75 13.52 1.88 14.63 0.15 1.10 0.47 3.70 0.75 5.75 0.28 2.08 0.95 7.30 1.50 11.63 0.93 7.30 1.45 11.43 2.38 18.38 0.20 1.52 0.73 5.45 1.13 8.75 0.43 3.30 0.93 7.10 1.13 8.45 0.22 1.35 0.32 2.55 0.25 2.67 -0.10 0.15 -6.25 0.25 -16 0.25 l-15.88 0 -0.10 -0.55 c-0.08 -0.32 -0.17 -1.88 -0.28 -3.45 -0.08 -1.58 -0.30 -4.55 -0.50 -6.63 -0.43 -4.25 -0.98 -10.80 -1.52 -17.75 -0.20 -2.60 -0.45 -5.65 -0.60 -6.75 -0.13 -1.10 -0.30 -3.13 -0.38 -4.50 -0.08 -1.38 -0.32 -4.07 -0.52 -6 -0.20 -1.92 -0.38 -4.38 -0.43 -5.45 -0.03 -1.05 -0.13 -1.92 -0.20 -1.92 -0.08 0 -1.30 2.45 -2.72 5.45 -3.10 6.50 -10.07 21.17 -11.77 24.70 -0.65 1.40 -2.22 4.65 -3.45 7.22 -1.25 2.58 -2.28 4.72 -2.28 4.78 0 0.03 -1.17 2.50 -2.60 5.45 l-2.63 5.40 -16.38 0 c-11.73 0 -16.40 -0.08 -16.40 -0.28z"/>
  <path d="M426.75 396.20 c0 -0.22 0.10 -0.98 0.22 -1.63 0.15 -0.65 0.73 -3.63 1.27 -6.57 1.02 -5.35 2.38 -12.25 3.78 -19.33 0.40 -2.03 0.73 -3.90 0.73 -4.18 0 -0.50 -0.22 -0.50 -23.75 -0.50 -20.67 0 -23.75 -0.05 -23.75 -0.38 0 -0.20 0.45 -2.58 0.98 -5.30 0.55 -2.72 1.27 -6.53 1.65 -8.45 1.92 -10.10 1.67 -9.27 4.38 -14.13 0.65 -1.17 2.33 -4.25 3.75 -6.88 1.40 -2.60 3.97 -7.32 5.70 -10.50 1.70 -3.15 3.90 -7.20 4.88 -9 0.95 -1.77 2.05 -3.80 2.42 -4.50 0.38 -0.68 2.45 -4.50 4.63 -8.50 2.17 -3.97 5 -9.23 6.32 -11.63 1.30 -2.40 2.72 -5.05 3.17 -5.88 1.40 -2.58 7.05 -12.98 10.30 -19 4.18 -7.68 4.60 -8.45 5.70 -10.50 0.52 -0.95 1.13 -2.08 1.38 -2.50 0.25 -0.40 0.88 -1.60 1.42 -2.63 0.93 -1.70 3.15 -5.82 5.20 -9.63 0.45 -0.82 2.45 -4.47 4.43 -8.13 1.98 -3.65 3.75 -6.93 3.92 -7.30 l0.35 -0.70 17 -0.05 c14.25 -0.08 17 -0.03 17.13 0.28 0.08 0.17 -0.17 1.88 -0.52 3.75 -0.38 1.88 -1.13 5.78 -1.67 8.65 -1.13 5.80 -2.75 14.15 -3.50 18 -0.25 1.38 -1.15 6.05 -2 10.38 -0.82 4.32 -1.67 8.68 -1.88 9.63 -0.20 0.98 -0.70 3.60 -1.13 5.88 -0.45 2.28 -1.17 6.10 -1.65 8.50 -0.47 2.40 -1.08 5.50 -1.35 6.88 -0.25 1.38 -0.88 4.53 -1.35 7 -0.47 2.47 -1.38 7.20 -2.03 10.50 -0.63 3.30 -1.35 7.07 -1.63 8.38 -0.25 1.30 -1 5.07 -1.63 8.38 -0.63 3.30 -1.42 7.40 -1.77 9.10 -0.32 1.73 -0.60 3.20 -0.60 3.33 0 0.10 3.28 0.20 7.28 0.20 3.97 0 7.20 0.10 7.13 0.20 -0.08 0.13 -1.02 4.78 -2.13 10.32 -1.13 5.55 -2.17 10.90 -2.40 11.85 -0.20 0.98 -0.45 2.33 -0.57 3 l-0.17 1.25 -7.25 0.13 -7.25 0.13 -0.55 2.75 c-0.57 2.85 -2.85 14.60 -4.60 23.75 -0.55 2.90 -1.08 5.40 -1.17 5.57 -0.15 0.25 -3.20 0.32 -14.50 0.38 -13.32 0.05 -14.30 0.03 -14.30 -0.38z m11.13 -59.22 c0.17 -0.25 0.88 -3.53 1.50 -6.97 0.38 -1.95 1.83 -9.23 2.50 -12.50 0.22 -1.02 1.95 -9.80 3.88 -19.50 1.92 -9.70 3.88 -19.52 4.35 -21.88 0.47 -2.33 0.80 -4.30 0.75 -4.35 -0.35 -0.38 -1.17 0.77 -2.85 4 -1.02 1.98 -2.83 5.40 -3.97 7.60 -1.15 2.20 -5.40 10.35 -9.45 18.13 -4.07 7.78 -7.97 15.25 -8.70 16.63 -0.73 1.38 -2 3.85 -2.88 5.50 -0.85 1.65 -2.30 4.40 -3.20 6.13 -0.88 1.73 -2.10 4.05 -2.70 5.18 -0.60 1.13 -1.10 2.10 -1.10 2.17 0 0.28 21.73 0.17 21.88 -0.13z"/>
  <path d="M227.40 332.80 c-0.05 -0.10 0.10 -1.20 0.35 -2.42 0.55 -2.58 2 -10 3.50 -17.88 1.48 -7.80 1.73 -9.02 1.90 -9.27 0.08 -0.13 13.43 -0.22 32.78 -0.22 l32.63 0 -0.13 0.57 c-0.22 0.98 -2.35 11.65 -3.20 16.05 -0.43 2.35 -1.23 6.28 -1.70 8.75 l-0.93 4.50 -32.53 0.08 c-17.90 0.03 -32.60 -0.03 -32.67 -0.15z"/>
  <path d="M246.63 212.57 c0.08 -0.25 0.32 -1.17 0.52 -2.08 0.70 -2.97 2.13 -8.07 3.25 -11.70 l1.13 -3.58 -0.28 -4.97 c-0.15 -2.75 -0.38 -5.82 -0.50 -6.82 -0.10 -0.98 -0.30 -3.15 -0.40 -4.80 -0.08 -1.65 -0.20 -3.08 -0.25 -3.15 -0.08 -0.15 -0.85 -0.05 -5.35 0.65 -1.30 0.20 -3.55 0.50 -5 0.65 -1.45 0.13 -3.30 0.35 -4.13 0.47 -0.82 0.13 -3.85 0.43 -6.75 0.68 -10.15 0.88 -29.63 0.30 -39.50 -1.15 -6.45 -0.95 -12.38 -2.05 -14.55 -2.67 -1.48 -0.43 -1.27 -0.50 -3.80 1.38 -1.02 0.77 -2.53 1.90 -3.38 2.50 -0.85 0.63 -2.97 2.20 -4.78 3.53 -5.38 4 -14.40 9.88 -23.52 15.32 -0.85 0.50 -3.60 1.88 -6.13 3.08 -11.73 5.50 -16.98 7.18 -24.67 7.90 -12.13 1.13 -22.23 -4.60 -25.52 -14.48 -1.58 -4.68 -1.65 -12.63 -0.20 -16.98 0.30 -0.93 0.38 -0.98 1.27 -0.93 0.55 0.05 1.02 0.10 1.08 0.17 0.05 0.05 -0.03 0.63 -0.17 1.30 -1.67 7.38 -1.15 14.13 1.50 19.33 1.25 2.47 4.97 5.90 7.68 7.05 3.45 1.48 9.43 2.38 13.27 1.98 9.35 -0.98 18.08 -4.80 30.55 -13.45 1.73 -1.20 3.75 -2.63 4.50 -3.20 0.75 -0.55 3.13 -2.22 5.25 -3.67 4.80 -3.30 17 -12.70 17 -13.13 0 -0.10 -0.93 -0.43 -2.05 -0.75 -4.68 -1.30 -13.25 -5.07 -18.10 -7.93 -2.17 -1.27 -7 -4.63 -8.98 -6.22 -2 -1.60 -5.75 -5.32 -7.97 -7.90 -4.28 -4.95 -6.20 -7.85 -9.02 -13.63 -2.92 -5.97 -4.35 -10.48 -5.65 -17.75 -0.50 -2.83 -0.57 -4.07 -0.60 -9.75 0 -5.80 0.05 -6.80 0.57 -9.20 2.20 -10.60 5.75 -17.40 12.77 -24.45 6.32 -6.35 13.57 -10.55 23.40 -13.63 6.82 -2.13 14.68 -2.95 23.38 -2.40 12.35 0.77 24.23 4.78 34.17 11.50 6.20 4.18 15.20 13.50 19.63 20.30 2.72 4.20 3.63 5.65 4.57 7.38 0.52 0.98 1.20 2.17 1.52 2.67 0.32 0.50 1.50 2.88 2.60 5.25 2.47 5.25 2.83 5.95 3.05 6.10 0.10 0.08 1.13 -0.65 2.28 -1.58 3.35 -2.70 6.97 -5.47 10.77 -8.23 1.92 -1.42 4.20 -3.08 5.03 -3.67 4.15 -3.05 9.85 -7.10 12.88 -9.15 4.88 -3.35 14.10 -9.48 16.20 -10.77 0.98 -0.63 3.85 -2.47 6.35 -4.10 2.53 -1.65 6.55 -4.13 8.95 -5.53 2.40 -1.40 5.80 -3.40 7.53 -4.43 10.50 -6.28 30.70 -16.55 42.22 -21.50 4.78 -2.05 5.55 -2.38 7.63 -3.15 1.10 -0.43 4.20 -1.65 6.88 -2.70 4.93 -1.92 9.20 -3.42 12.38 -4.32 0.98 -0.28 2.55 -0.75 3.50 -1.05 0.98 -0.30 2.65 -0.73 3.75 -0.98 1.10 -0.25 3.30 -0.73 4.88 -1.10 6.32 -1.40 7 -1.40 7.35 0 0.22 0.88 -0.13 1.23 -2.20 2.28 -0.98 0.50 -2.40 1.30 -3.15 1.83 -0.75 0.52 -2.33 1.55 -3.50 2.28 -5.50 3.42 -17.10 11.43 -21.30 14.65 -7.80 6.05 -9.65 7.55 -15.38 12.38 -10.95 9.23 -27.92 26.33 -36.20 36.40 -10.70 13.07 -13.07 16.27 -21.20 28.42 -4.88 7.28 -5.38 8.10 -9.85 15.93 -3.85 6.78 -7.25 13.38 -9.32 18.08 -0.85 1.92 -1.75 3.92 -2.03 4.47 -0.28 0.52 -0.43 1.02 -0.38 1.10 0.15 0.13 1.20 -0.25 6.65 -2.40 3.30 -1.27 12.10 -5.95 15.25 -8.05 4.20 -2.80 4.32 -2.90 7.65 -6.05 0.98 -0.95 1.88 -1.70 2.03 -1.70 0.15 0 0.55 0.40 0.85 0.93 l0.57 0.90 -1.50 1.35 c-4.28 3.95 -11.90 9.10 -17.23 11.70 -5.63 2.72 -11.30 5.10 -14.13 5.90 -1.42 0.40 -1.90 0.80 -2.28 1.95 -0.17 0.50 -1.17 3.10 -2.22 5.78 -2.03 5.05 -4.82 13.05 -6.95 19.75 -1.05 3.28 -3.83 13.73 -4.10 15.38 -0.08 0.47 -0.30 0.50 -5.18 0.57 -4.78 0.05 -5.07 0.03 -4.90 -0.38z m8.65 -27.45 c0.85 -2.20 2.30 -5.72 3.22 -7.80 l1.70 -3.83 -0.73 0 c-0.40 0 -1.92 0.28 -3.38 0.63 -1.45 0.35 -2.85 0.63 -3.13 0.63 -0.57 0 -0.57 -0.10 -0.05 6.63 0.22 2.90 0.40 5.93 0.38 6.75 -0.05 0.98 0.03 1.40 0.20 1.23 0.13 -0.13 0.93 -2.03 1.77 -4.22z m-28.90 -9.65 c3.30 -0.15 7.18 -0.40 8.63 -0.60 1.45 -0.20 3.35 -0.43 4.25 -0.50 0.90 -0.10 2.88 -0.38 4.38 -0.63 1.52 -0.28 3.45 -0.55 4.32 -0.65 0.85 -0.10 1.63 -0.25 1.70 -0.38 0.13 -0.20 -0.50 -6.65 -0.77 -7.97 -0.08 -0.35 -0.35 -2.20 -0.63 -4.13 -1.58 -11.55 -4.07 -22.98 -7.22 -33.25 -1.27 -4.13 -2.20 -6.72 -2.45 -6.80 -0.13 -0.05 -0.82 0.45 -1.58 1.08 -1.30 1.10 -8.20 6.55 -11.60 9.15 -0.82 0.63 -2.47 1.98 -3.65 2.95 -1.17 0.98 -4.38 3.65 -7.13 5.90 -2.75 2.28 -6.63 5.50 -8.60 7.18 -3.38 2.88 -6.43 5.43 -13.27 11.15 -4 3.35 -9.35 7.68 -13.18 10.70 -1.80 1.42 -3.40 2.72 -3.55 2.92 -0.35 0.43 -0.22 0.47 2.10 0.90 0.70 0.10 2.83 0.50 4.75 0.85 1.92 0.32 4.68 0.75 6.13 0.90 1.45 0.15 3.25 0.38 4 0.50 1.63 0.28 12.40 0.98 16.50 1.10 3.50 0.10 8.90 -0.03 16.88 -0.38z m31.38 -4.25 c1.30 -0.25 2.70 -0.55 3.08 -0.68 0.63 -0.15 1.02 -0.88 3.53 -6.07 1.55 -3.25 3.55 -7.18 4.45 -8.75 0.90 -1.58 2.22 -3.92 2.95 -5.22 6.13 -10.85 17.67 -27.45 28 -40.25 3.15 -3.92 11.30 -13.32 14.02 -16.25 0.60 -0.63 2.13 -2.30 3.42 -3.75 3.35 -3.70 7.93 -8.35 13.18 -13.30 2.47 -2.35 5.22 -4.97 6.13 -5.82 1.45 -1.38 5.47 -4.95 9.95 -8.82 9.43 -8.18 27.42 -21.42 36.90 -27.17 1.10 -0.65 2.38 -1.48 2.85 -1.77 l0.88 -0.60 -0.75 0 c-0.43 0 -1.33 0.17 -1.98 0.38 -0.68 0.20 -2.58 0.75 -4.22 1.25 -3.60 1.05 -12.93 4.18 -14.43 4.82 -0.60 0.28 -2.20 0.90 -3.58 1.42 -1.38 0.52 -2.95 1.15 -3.50 1.38 -0.55 0.25 -3.20 1.38 -5.88 2.50 -2.67 1.13 -5.38 2.30 -6 2.60 -2.60 1.30 -4.97 2.40 -6.63 3.13 -0.95 0.40 -2.38 1.10 -3.13 1.52 -0.75 0.43 -1.55 0.88 -1.75 0.98 -0.20 0.13 -0.82 0.45 -1.38 0.73 -4.15 2.08 -14.80 8.05 -17 9.52 -0.63 0.43 -1.20 0.77 -1.27 0.77 -0.45 0 -10.80 6.70 -11.32 7.35 -0.17 0.22 -0.43 0.40 -0.55 0.40 -0.32 0 -10.68 7 -16.10 10.88 -9.98 7.13 -35.70 26.83 -43.53 33.33 -1.13 0.93 -2.35 1.90 -2.75 2.20 l-0.70 0.50 1.95 5.85 c4.20 12.65 7.65 29.35 9.15 44.50 0.43 4.10 0.22 3.78 2.05 3.35 0.88 -0.22 2.65 -0.60 3.95 -0.88z m-88.07 -3.40 c1.30 -1.08 3.38 -2.72 4.57 -3.70 4.03 -3.25 12.60 -10.32 16.63 -13.75 4.22 -3.60 21 -17.63 25.88 -21.65 2.47 -2.03 7.15 -5.78 9.65 -7.75 0.43 -0.32 2.75 -2.20 5.18 -4.18 4 -3.22 4.40 -3.60 4.20 -4.13 -1.88 -4.82 -6.63 -14.02 -9.73 -18.80 -1.67 -2.58 -6.15 -8.50 -7.95 -10.52 -3.95 -4.43 -8.88 -8.85 -13.38 -11.98 -6.47 -4.50 -17.17 -8.45 -25.60 -9.48 -5.72 -0.70 -13.45 -0.60 -17 0.22 -0.82 0.17 -2.28 0.47 -3.25 0.65 -0.95 0.15 -2.13 0.45 -2.60 0.63 -0.45 0.20 -1.20 0.35 -1.63 0.35 -0.45 0 -0.93 0.13 -1.08 0.28 -0.15 0.15 -0.93 0.40 -1.73 0.60 -1.95 0.45 -3.88 1.13 -4.38 1.55 -0.20 0.17 -0.57 0.32 -0.80 0.32 -0.40 0 -6.47 3.03 -7.07 3.53 -0.15 0.13 -0.82 0.52 -1.48 0.88 -1.23 0.65 -1.52 0.85 -3.75 2.60 -4.57 3.60 -6.82 6.03 -9.73 10.38 -2.30 3.45 -3.30 5.45 -4.63 9.25 -1.92 5.45 -2.78 10.45 -2.78 16.23 0 14.85 4.10 26.95 12.88 38.05 3.42 4.30 7.47 8.02 12.07 11.13 5.15 3.47 9.52 5.90 13.18 7.35 0.98 0.38 3.05 1.20 4.63 1.83 2.88 1.15 5.63 1.98 6.70 2.03 0.35 0.03 1.45 -0.70 2.97 -1.90z"/>
  <path d="M312.50 200.73 c-4.70 -0.73 -8.52 -4.43 -10.30 -10.05 -0.77 -2.45 -0.82 -2.70 -0.80 -6.68 0 -3.78 0.05 -4.38 0.77 -7.25 0.82 -3.25 1.98 -6.68 3.33 -9.80 1.23 -2.83 5.32 -10.90 7.15 -14.13 3.90 -6.88 12.45 -20 23.08 -35.45 1.50 -2.20 5.35 -7.88 8.55 -12.63 15.43 -22.90 25.15 -35.97 35.08 -47.13 5.55 -6.22 6.13 -6.85 10.40 -10.73 7.53 -6.80 12.27 -10.38 17.90 -13.43 4.97 -2.67 9.88 -4.90 13.35 -6.05 1.02 -0.35 2.08 -0.70 2.30 -0.80 0.30 -0.13 0.52 0.05 0.82 0.63 0.73 1.42 0.65 1.50 -4.50 3.33 -4.30 1.52 -12.45 6.35 -15.85 9.40 -1 0.90 -2.38 2.10 -3.03 2.65 -1.15 1 -5.63 5.78 -8.27 8.88 -9.65 11.30 -25.65 34.65 -51.60 75.38 -0.70 1.10 -1.90 2.95 -2.67 4.13 -2.33 3.53 -12 19.75 -13.95 23.38 -0.60 1.10 -1.95 3.58 -3.03 5.50 -4.38 7.93 -8.90 18.20 -10.52 23.88 -0.75 2.63 -0.82 3.17 -0.82 6.38 0 3.33 0.03 3.58 0.68 4.78 0.85 1.63 2.22 2.53 4.53 3 2.42 0.52 3.50 0.30 6.85 -1.27 6.57 -3.13 15.77 -11.57 29.15 -26.80 4.57 -5.20 14.93 -17.98 17.92 -22.08 1.02 -1.42 2.42 -3.33 3.10 -4.22 0.68 -0.90 2.20 -3.22 3.40 -5.15 1.20 -1.92 4.20 -6.70 6.65 -10.63 6.75 -10.70 13.93 -22.48 15.32 -25.17 0.30 -0.57 0.32 -0.57 6.18 -0.57 4.68 0 5.88 0.08 5.80 0.32 -0.05 0.17 -0.90 1.50 -1.90 2.92 -3.45 4.90 -12.77 19.27 -18.88 29.10 -7.47 11.98 -10.02 16.35 -15.55 26.52 -2.08 3.80 -5.47 10.85 -7 14.48 -3.38 8.05 -4.45 11.93 -4.47 16.15 -0.03 2.47 0.05 3 0.50 3.88 1.05 1.92 2.47 2.70 4.97 2.72 1.90 0.03 2.35 -0.13 5.78 -1.77 3.25 -1.60 10.02 -6.95 14.48 -11.48 4.72 -4.80 8.18 -8.48 11.50 -12.25 5.82 -6.60 6.15 -6.97 9.38 -10.98 1.67 -2.05 4.18 -5.15 5.57 -6.88 1.40 -1.73 3.38 -4.25 4.40 -5.63 1.50 -2 4.50 -5.88 4.93 -6.35 0.15 -0.15 2.60 0.57 2.60 0.80 0 0.60 -14.32 18.67 -20.73 26.17 -9.27 10.85 -15.18 16.92 -21.58 22.23 -5.65 4.65 -9.07 6.85 -12.90 8.18 -1.67 0.57 -2.33 0.68 -5.05 0.70 -3 0.03 -3.17 0 -4.60 -0.73 -2.03 -1.02 -4.97 -3.90 -5.75 -5.65 -2.50 -5.43 -1.90 -11.98 2.08 -22.65 0.43 -1.15 1.83 -4.22 3.13 -6.88 1.27 -2.65 2.30 -4.85 2.28 -4.90 -0.05 -0.05 -0.50 0.52 -1.05 1.30 -0.52 0.75 -2.65 3.42 -4.75 5.97 -9.77 11.88 -19.48 21.65 -27.20 27.48 -2.20 1.65 -7.78 4.82 -9.52 5.43 -1.83 0.60 -5.35 0.85 -7.60 0.50z"/>
  <path d="M415.23 75.50 l-1.05 -0.98 0.13 -2.08 c0.13 -2.35 0.85 -4.07 2.67 -6.38 1.20 -1.50 4.05 -3.47 5.90 -4.13 4.03 -1.40 6.60 0.55 5.93 4.50 -0.38 2.30 -1.38 4.13 -3.40 6.25 -2.42 2.55 -4.85 3.80 -7.38 3.80 -1.70 0 -1.77 -0.03 -2.80 -1z"/>
 </g>
</svg>